<?xml version="1.0" standalone="no"?>
<!DOCTYPE svg PUBLIC "-//W3C//DTD SVG 20010904//EN"
 "http://www.w3.org/TR/2001/REC-SVG-20010904/DTD/svg10.dtd">
<svg version="1.0" xmlns="http://www.w3.org/2000/svg"
 width="900.000000pt" height="900.000000pt" viewBox="0 0 900.000000 900.000000"
 preserveAspectRatio="xMidYMid meet">
<metadata>
Created by potrace 1.14, written by Peter Selinger 2001-2017
</metadata>
<g transform="translate(0.000000,900.000000) scale(0.100000,-0.100000)"
fill="#000000" stroke="none">
<path d="M3401 7639 c-265 -9 -356 -20 -516 -61 -195 -50 -521 -198 -675 -306
-359 -252 -610 -601 -766 -1067 l-43 -130 -10 -230 c-33 -723 -39 -2397 -11
-2730 23 -269 71 -443 183 -674 205 -418 651 -811 1102 -970 205 -73 250 -79
626 -92 189 -6 862 -12 1494 -13 1069 -1 1156 0 1240 17 335 67 587 179 835
371 95 73 313 290 380 376 149 195 267 427 334 658 55 189 69 478 70 1427 l1
750 -23 57 c-33 83 -95 161 -150 191 -52 28 -119 37 -427 62 -282 23 -316 33
-412 119 -79 71 -93 115 -104 320 -11 205 -22 298 -54 433 -143 602 -685 1174
-1350 1423 -93 35 -117 40 -251 50 -415 29 -979 36 -1473 19z m1245 -1703
c122 -58 171 -119 196 -241 9 -45 9 -75 -1 -134 -16 -95 -37 -136 -102 -200
-90 -89 -67 -86 -784 -86 -551 1 -627 2 -682 18 -118 32 -187 95 -224 205 -25
74 -27 187 -5 250 40 113 136 192 256 211 30 5 330 9 665 10 l611 1 70 -34z
m-136 -2214 c0 -5 241 -12 535 -16 295 -3 568 -11 609 -16 152 -19 251 -80
301 -185 45 -97 31 -245 -34 -346 -46 -73 -102 -106 -202 -119 -46 -6 -381
-17 -744 -25 -653 -15 -1506 -8 -1671 13 -108 14 -190 78 -247 192 -28 56 -32
74 -31 135 1 44 9 90 23 125 25 65 96 151 146 174 76 36 213 57 435 65 299 11
880 13 880 3z"/>
</g>
</svg>
